<?xml version="1.0" encoding="UTF-8" standalone="no"?><!DOCTYPE svg PUBLIC "-//W3C//DTD SVG 1.1//EN" "http://www.w3.org/Graphics/SVG/1.1/DTD/svg11.dtd"><svg width="100%" height="100%" viewBox="0 0 1500 650" version="1.1" xmlns="http://www.w3.org/2000/svg" xmlns:xlink="http://www.w3.org/1999/xlink" xml:space="preserve" xmlns:serif="http://www.serif.com/" style="fill-rule:evenodd;clip-rule:evenodd;stroke-linejoin:round;stroke-miterlimit:2;"><g><path id="Niccolo-Outline" serif:id="Niccolo Outline" d="M20.271,459.439c-1.17,-3.419 3.175,-9.667 10.262,-9.656c47.47,-41.735 98.965,-93.306 153.09,-151.305l141.37,-151.839l46.857,-57.73c4.246,-5.313 12.634,-0.233 7.597,7.121c-24.452,33.091 -49.57,66.559 -72.909,99.021c-4.255,7.012 -28.702,40.073 -54.403,74.754c-31.401,44.917 -56.137,87.345 -72.031,126.472c-5.226,12.173 -10.453,24.346 -15.679,36.52c-18.953,41.143 -39.007,81.367 -59.994,120.815c42.202,-42.593 70.867,-72.932 102.804,-107.146c28.316,-30.334 61.042,-62.614 73.907,-73.637c10.762,-9.09 17.153,-13.711 20.76,-16.467c5.612,-4.288 13.108,-2.443 10.155,8.052c-3.103,9.01 -7.394,18.956 -13.682,30.475c-4.402,8.289 -8.249,16.961 -11.459,24.83c-4.646,11.389 -7.855,20.391 -7.923,25.916c14.003,-8.284 31.688,-21.532 51.119,-36.542c13.038,-8.455 26.163,-16.951 39.441,-25.517c12.498,-8.738 23.006,-15.921 36.217,-21.442c7.292,-2.43 13.246,1.576 10.104,8.202l-8.089,13.678c-6.343,7.45 -13.359,34.46 -11.387,34.695c3.534,0.777 7.149,0.17 10.794,-0.933c23.784,-10.493 45.573,-21.385 69.025,-34.661c6.369,-3.605 11.37,1.451 6.254,5.825c-16.222,12.959 -28.925,27.403 -34.865,44.701c8.792,0.261 20.532,-8.963 33.808,-16.713c8.014,-4.576 16.028,-9.154 20.885,-8.785c11.911,-10.996 25.507,-24.107 43.452,-42.675c13.197,-30.813 29.84,-58.163 48.859,-83.127c17.47,-25.723 37.654,-48.609 58.99,-70.29c22.847,-26.175 44.455,-44.727 71.493,-52.443c7.445,-2.124 16.358,3.673 17.086,14.754c0.351,4.574 0.445,8.416 0.463,12.046c-4.465,23.076 -37.053,52.117 -68.637,80.944c-40.543,34.913 -80.295,70.231 -118.776,106.201c-8.172,17.541 -14.392,35.163 -18.91,52.857c-0.517,3.438 -0.96,6.889 -0.507,10.481c1.697,1.017 5.468,0.45 9.67,-0.445c11.461,-4.152 26.727,-13.293 43.617,-24.563c4.248,-15.98 9.857,-31.063 16.469,-45.483c16.602,-29.693 44.252,-62.684 61.948,-68.886c11.646,-4.081 20.539,3.744 18.176,16.41c-5.323,22.443 -36.961,61.86 -79.496,102.518c3.018,1.49 5.795,0.679 9.36,-1.235c2.52,-0.936 3.644,0.943 2.567,2.551c-1.569,2.342 -2.793,4.242 -3.853,6.808c-4.713,11.41 -19.341,14.129 -25.345,4.372c-15.438,10.943 -30.287,20.032 -42.639,21.265c-13.619,2.275 -19.672,-1.519 -22.759,-7.695c-4.459,-8.734 -0.458,-24.537 8.084,-44.134c-10.253,10.639 -21.336,20.469 -33.584,29.164c-4.302,3.574 -8.532,3.089 -11.05,-1.904c-16.541,11.137 -30.907,20.415 -39.674,19.79c-14.821,-1.058 -15.256,-12.14 0.849,-34.251c-20.141,11.132 -35.112,21.67 -50.324,21.67c-12.367,-0 -16.07,-5.667 -16.095,-15.883c-0.026,-11.108 12.042,-28.307 25.69,-46.49c-6.766,1.251 -29.36,16.484 -36.856,22.894c-31.276,26.743 -56.376,48.181 -80.374,61.851c-28.635,14.765 -30.493,-3.213 -23.688,-22c5.204,-14.365 5.708,-14.079 16.705,-34.027c3.395,-6.157 12.513,-19.838 18.955,-32.346c-21.194,16.195 -63.494,61.438 -108.128,109.894c-54.127,64.575 -96.284,112.081 -119.345,130.945c-8.391,6.863 -21.32,0.204 -14.954,-12.912c30.64,-55.549 61.083,-111.714 91.044,-169.382c10.592,-24.866 23.464,-49.607 38.413,-74.233c15.015,-28.578 59.12,-90.218 110.565,-160.202l-112.922,123.021c-36.339,42.043 -74.641,81.815 -114.295,120.022l-34.998,26.716c-7.575,5.788 -15.046,5.237 -17.274,-1.272Zm584.135,-59.379c2.547,-13.05 7.342,-25.449 13.647,-37.411c13.317,-22.914 32.664,-47.218 46.624,-56.324c10.853,-5.711 15.959,-1.884 14.306,5.387c-14.859,30.917 -42.775,59.263 -74.577,88.348Zm-36.287,-54.812c18.429,-40.636 47.954,-79.719 82.452,-118.106c21.615,-24.592 43.824,-45.573 67.534,-57.425c8.454,-3.531 14.15,-3.27 15.663,2.74c1.208,5.511 1.087,12.919 -0.025,15.884c-10.895,29.06 -98.099,97.654 -165.624,156.907Z"/><path d="M790.827,340.284c14.131,-11.65 22.862,-18.483 26.192,-20.401c16.902,-8.922 34.857,-17.829 54.346,-26.712c41.304,-55.97 93.802,-108.542 154.102,-158.745c64.172,-53.215 105.987,-85.713 113.832,-89.283c6.351,-4.057 10.29,-3.836 9.835,2.373c0.537,5.883 -5.707,13.962 -14.222,22.776c-13.989,18.609 -69.137,70.564 -143.638,138.199c-16.254,14.232 -30.536,27.337 -42.56,39.151c-8.867,10.618 -18.587,21.162 -29.312,31.616c29.784,1.071 28.6,23.154 -0.625,46.65c-25.027,24.157 -54.137,45.113 -90.469,60.405c-28.265,41.837 -49.15,77.302 -60.555,104.586c-1.328,3.177 -7.815,18.804 -9.47,27.943c-4.9,27.063 10.015,23.06 21.109,17.971c16.709,-7.664 47.351,-35.697 78.978,-69.143c16.312,-20.342 32.626,-40.673 49.286,-59.531l35.791,-41.013c10.68,-10.696 15.887,-9.64 14.867,4.787l0.595,44.037c0.101,2.758 1.698,4.03 5.102,3.509c14.976,-4.162 29.386,-10.875 43.334,-19.664c3.561,-13.613 14.633,-25.34 29.175,-36.196l22.441,-14.931c18.8,-13.476 37.413,-21.894 55.74,-22.538c6.642,0.777 8.001,4.197 2.512,11.04c-8.132,9.079 -20.747,18.875 -34.694,28.883c-12.008,9.381 -32.042,22.63 -60.721,40.05c-4.734,3.027 -4.639,5.159 -0.543,6.55c30.233,-0.882 54.09,-16.005 77.861,-31.32l78.336,-53.796c6.813,-4.532 7.774,-2.56 4.78,4.683l-13.326,10.376c-11.237,9.236 -21.582,23.435 -30.556,45.247c19.972,-22.566 41.888,-43.948 65.1,-64.539c36.527,-31.836 66.455,-57.911 85.428,-72.972l49.659,-114.434c30.151,-70.206 63.115,-118.463 101.962,-120.814c10.2,-0.617 22.043,5.413 22.793,18.674c0.675,11.94 -9.22,36.621 -20.016,54.793c-17.775,39.721 -72.206,101.77 -143.423,162.579c-18.125,44.481 -37.315,87.848 -57.208,130.48c15.957,-15.122 32.068,-29.228 48.482,-41.326c16.178,-12.339 25.42,-11.829 23.443,9.463c-1.374,12.137 -3.975,23.706 -8.242,34.505c17.261,-20.861 34.969,-39.56 53.598,-53.805c22.833,-19.216 39.045,-22.42 43.464,2.893l0.687,19.386c0.61,3.885 2.56,3.346 4.64,0.295c3.65,-2.837 4.84,-1.296 3.571,3.234l-4.48,4.436c-8.095,6.965 -12.46,3.205 -13.005,-11.534l-2.491,-21.154c-1.277,-5.355 -4.898,-5.045 -9.637,-2.035c-10.262,6.903 -19.7,14.708 -28.47,23.249c-20.622,21.031 -39.722,43.404 -57.37,67.058c-6.958,7.296 -17.433,2.826 -13.117,-9.237c8.703,-18.489 16.414,-38.868 23.309,-60.801c0.513,-1.942 0.625,-3.57 0.555,-5.055c-0.084,-2.158 -1.304,-2.818 -3.997,-1.536c-10.007,4.648 -38.464,30.349 -69.307,58.775c-18.018,39.51 -42.493,81.084 -61.361,112.817c-15.895,26.735 -32.517,51.063 -51.844,77.582c-11.06,15.967 -24.357,29.563 -39.492,41.212c-14.64,9.765 -23.656,4.567 -23.983,-11.631c-0.227,-11.224 12.271,-31.246 29.841,-55.471l16.19,-27.055c37.737,-54.692 75.307,-98.044 112.733,-131.562l64.645,-136.834c-44.996,39.012 -86.331,78.465 -123.784,118.386c-10.374,15.05 -19.756,21.651 -27.489,14.2c-8.665,-7.056 3.682,-22.95 15.182,-38.487c-27.042,20.746 -52.866,39.881 -70.454,48.128c-18.019,9.664 -35.365,16.293 -51.281,16.483c-8.823,0.488 -14.584,-2.983 -17.154,-10.58c-16.049,9.662 -31.681,18.226 -44.512,19.401c-10.209,-0.192 -15.881,-3.907 -15.058,-12.664c1.616,-12.544 4.133,-25.363 7.168,-38.34c0.426,-5.95 0.285,-11.97 -0.325,-18.048c-4.409,1.154 -32.557,35.243 -62.642,72.018c-16.158,24.562 -42.094,53.85 -77.866,87.891c-29.099,26.823 -50.488,34.159 -63.639,23.277c-9.388,-7.768 -9.983,-23.902 -4.601,-44.68c14.14,-41.508 34.508,-77.887 57.319,-112.253l-15.554,0.957c-13.166,2.136 -21.228,-7.217 -20.125,-19.359c0.471,-5.185 5.926,-4.163 6.19,0.805l0.056,4.409c0.144,1.466 0.961,2.324 3.322,1.79c15.214,-2.886 27.175,-5.595 39.417,-8.32l11.731,-16.82c-12.537,7.756 -26.583,12.915 -43.06,13.89c-14.901,-0.493 -9.189,-15.08 6.979,-29.279Zm414.48,86.48c-22.256,40.512 -48.181,82.189 -76.975,126.343c-27.236,35.969 -44.649,56.694 -53.771,62.226c-0.12,-7.817 9.581,-24.513 23.178,-44.73c8.821,-14.641 16.901,-28.071 23.705,-39.421c40.639,-59.455 66.613,-90.413 83.863,-104.418Zm-178.28,-38.987c14.175,-9.07 28.957,-18.853 44.552,-29.591c19.866,-10.959 36.232,-20.597 40.815,-25.795c-27.737,2.819 -70.826,31.038 -85.367,55.386Zm-178.283,-30.729c31.942,-20.031 53.3,-35.788 65.798,-47.965c5.138,-4.37 9.49,-9.322 13.125,-14.804c-6.643,-1.412 -14.627,-1.157 -23.54,0.252c-9.2,9.223 -20.581,19.463 -33.337,30.345c-3.543,4.971 -11.183,15.301 -22.046,32.172Zm-58.64,-1.128c14.859,-1.459 34.671,-14.198 55.997,-28.34c3.655,-4.48 7.289,-8.929 9.624,-13.347c-9.978,3.571 -21.859,9.534 -34.242,16.306c-21.104,15.919 -32.258,23.973 -31.379,25.381Zm115.973,-78.403l33.33,-34.097c20.314,-19.226 41.291,-37.458 63.022,-54.56c31.836,-27.817 62.044,-54.745 89.268,-80.044c24.823,-25.326 53.39,-53.527 53.343,-59.749c-7.426,4.73 -16.767,13.03 -25.831,20.812c-21.766,19.158 -44.251,38.317 -66.962,57.475c-22.656,20.764 -45.415,42.327 -68.292,64.824c-33.48,32.148 -58.19,59.778 -77.878,85.339Zm401.363,-43.122c16.971,-45.011 35.077,-89.057 54.716,-131.801c17.33,-34.503 37.252,-62.015 61.735,-77.223c10.166,-5.541 19.875,-7.148 28.715,-1.277c6.635,6.635 4.298,14.28 2.519,21.567c-8.122,26.528 -25.987,56.266 -44.164,81.113c-25.536,34.905 -65.89,75.934 -103.521,107.621Z"/><path d="M1446.02,213.684c-2.16,-9.662 1.698,-13.133 10.952,-10.452c3.849,3.585 8.747,6.193 13.678,6.007c9.177,2.961 12.191,9.881 6.072,15.938c0.637,5.115 -5.038,5.379 -6.199,1.113c-13.591,0.532 -21.806,-3.846 -24.503,-12.606Z"/></g></svg>